HIERARCHY
ROOT Hips
{
    OFFSET 6.9859232902526855 50.01128005981445 -9.886905670166016
    CHANNELS 6 Xposition Yposition Zposition Zrotation Xrotation Yrotation
    JOINT RightUpLeg
    {
        OFFSET -6.9859232902526855 0.0 0.0
        CHANNELS 3 Zrotation Xrotation Yrotation
        JOINT RightLeg
        {
            OFFSET 0.0 -25.294021606445312 0.0
            CHANNELS 3 Zrotation Xrotation Yrotation
            JOINT RightFoot
            {
                OFFSET 0.0 -24.71725845336914 0.0
                CHANNELS 3 Zrotation Xrotation Yrotation
                End Site
                {
                    OFFSET 0.0 0.0 9.886905670166016
                }
            }
        }
    }
    JOINT LeftUpLeg
    {
        OFFSET 6.9859232902526855 0.0 0.0
        CHANNELS 3 Zrotation Xrotation Yrotation
        JOINT LeftLeg
        {
            OFFSET 0.0 -25.294021606445312 0.0
            CHANNELS 3 Zrotation Xrotation Yrotation
            JOINT LeftFoot
            {
                OFFSET 0.0 -24.71725845336914 0.0
                CHANNELS 3 Zrotation Xrotation Yrotation
                End Site
                {
                    OFFSET 0.0 0.0 9.886905670166016
                }
            }
        }
    }
    JOINT Spine
    {
        OFFSET 0.0 17.402687072753906 0.0
        CHANNELS 3 Zrotation Xrotation Yrotation
        JOINT Spine3
        {
            OFFSET 0.0 18.424903869628906 0.0
            CHANNELS 3 Zrotation Xrotation Yrotation
            JOINT Neck
            {
                OFFSET 0.0 14.096488952636719 0.0
                CHANNELS 3 Zrotation Xrotation Yrotation
                End Site
                {
                    OFFSET 0.0 5.638596057891846 0.0
                }
            }
            JOINT LeftArm
            {
                OFFSET 11.567941665649414 0.0 0.0
                CHANNELS 3 Zrotation Xrotation Yrotation
                JOINT LeftForeArm
                {
                    OFFSET 19.85306167602539 0.0 0.0
                    CHANNELS 3 Zrotation Xrotation Yrotation
                    JOINT LeftHand
                    {
                        OFFSET 16.104482650756836 0.0 0.0
                        CHANNELS 3 Zrotation Xrotation Yrotation
                        End Site
                        {
                            OFFSET 6.441793441772461 0.0 0.0
                        }
                    }
                }
            }
            JOINT RightArm
            {
                OFFSET -11.567941665649414 0.0 0.0
                CHANNELS 3 Zrotation Xrotation Yrotation
                JOINT RightForeArm
                {
                    OFFSET -19.85306167602539 0.0 0.0
                    CHANNELS 3 Zrotation Xrotation Yrotation
                    JOINT RightHand
                    {
                        OFFSET -16.104482650756836 0.0 0.0
                        CHANNELS 3 Zrotation Xrotation Yrotation
                        End Site
                        {
                            OFFSET -6.441793441772461 0.0 0.0
                        }
                    }
                }
            }
        }
    }
}
MOTION
Frames: 4
Frame Time: 0.03333333333333333
-9.710135459899902 2.9459404945373535 -4.839707374572754 -0.42176434734299717 -6.518726691987378 -15.685416995838317 0.6995069175724201 8.716862018300366 -9.533755977965347 2.353955405182582 20.848790251134073 0.007756288948038807 0.0 0.0 1.789062008323228e-15 1.8050742417482672 5.9023715530281615 8.978908740999014 4.304124562838872 25.22726172280348 -4.640857424728281 5.17254644302753e-34 9.93923337957349e-17 -5.963540027744094e-16 2.147464241329884 11.016588910385877 -0.6252114303318075 -5.3933101032234765e-08 -3.901087332593238e-08 -3.088684572730203 -4.192162179680277 -7.013259890723335 176.40852043577905 112.76022852291786 -38.31970049306617 -160.4656510088589 3.3030547621308172e-06 1.2310135171446914e-06 127.7306066652271 0.0 0.0 3.1805546814635168e-15 -118.438795402791 -39.73462381941357 156.0816191518634 -1.3560230142017159e-06 -2.7333007377848753e-06 -127.49299799468037 0.0 0.0 0.0
-9.712935447692871 2.9602549076080322 -4.843571662902832 -0.4266515951545893 -6.527941250806814 -15.664643219726216 0.705589806585762 8.718663281406311 -9.549671691510124 2.348445666789996 20.84339976610987 0.021219699452450294 0.0 0.0 7.951386703658792e-16 1.8165605279786954 5.890282882181072 8.992612420269927 4.32587631604224 25.227041940793814 -4.666126611119475 0.0 0.0 1.1927080055488188e-15 2.1436960983950564 10.988901094819601 -0.6221651399653413 -3.323806889290675e-07 2.2881592594938324e-07 -3.1248293312669864 -4.177087585497872 -6.9498178958115755 176.38764593989882 112.85397280197344 -38.28445118821455 -160.3141497602436 1.8136328970556737e-06 6.46532240672106e-07 128.15796525795525 -6.361109362927033e-15 -6.361109362927033e-15 -7.951386703658796e-16 -118.27029899814575 -39.42625759111508 156.191028300096 -7.621999172018087e-07 9.97625666194668e-07 -127.94026529650053 0.0 0.0 0.0
-9.715497970581055 2.9715728759765625 -4.844631195068359 -0.4271141411574437 -6.537981977417784 -15.64243595185321 0.7133567664748033 8.730346260006439 -9.568208366547438 2.336910937035569 20.8385575724298 0.028833649992888694 -1.5902773407317584e-15 -3.578124016646457e-15 -1.1927080055488188e-15 1.829682284238887 5.891893042015655 9.008557035788785 4.337034527731999 25.222402513954545 -4.682192641924722 0.0 0.0 5.963540027744093e-16 2.129506389340715 10.95855978867411 -0.6178136809710558 -6.216659687471645e-07 7.088349859802223e-08 -3.153258484843685 -4.167233438933611 -6.899300590815502 176.31719091262252 112.86112966621874 -38.030991243659045 -160.22258766889263 1.0635935413774515e-06 3.195322274449044e-06 129.086252647867 0.0 0.0 2.3854160110976368e-15 -118.18839927889748 -39.33629300884945 156.25436621622927 3.664204750967884e-06 -3.7592064332873174e-07 -128.16522036662903 -6.3611093629270335e-15 0.0 0.0
-9.712142944335938 2.982266664505005 -4.839828014373779 -0.43107886265254397 -6.5553459202030755 -15.628857621239094 0.7105592116106307 8.756289157932333 -9.593277704837837 2.3154838919425593 20.83518199814499 0.04258782005348574 0.0 0.0 -2.5842006786891076e-15 1.832905895581726 5.912244690150082 9.033498834624904 4.350227933285853 25.213528706771136 -4.691029031904733 -1.5902773407317584e-15 -3.1805546814635168e-15 -1.9878466759146985e-16 2.118550442855953 10.927346258300707 -0.6135566198139036 -4.4358117512104003e-07 -3.2915798177825006e-07 -3.178805552912829 -4.154394736112204 -6.850153440579953 176.29117379260455 112.89659215985098 -37.98191768461003 -160.12206732942158 1.5851182897902271e-06 1.026376047762417e-06 129.7192051025138 0.0 0.0 0.0 -118.16458401272406 -39.32831520639319 156.28449137467953 -4.340723300605707e-06 2.2294454800465877e-06 -128.3629397156032 -6.361109362927033e-15 0.0 0.0
